HIERARCHY
ROOT Hips
{
	OFFSET 0.000000 0.000000 0.000000 
	CHANNELS 6 Xposition Yposition Zposition Zrotation Yrotation Xrotation
	JOINT LeftUpLeg
	{
		OFFSET 1.363060 -1.794630 0.839290 
		CHANNELS 3 Zrotation Yrotation Xrotation
		JOINT LeftLeg
		{
			OFFSET 2.448110 -6.726130 0.000000 
			CHANNELS 3 Zrotation Yrotation Xrotation
			JOINT LeftFoot
			{
				OFFSET 2.562200 -7.039590 0.000000 
				CHANNELS 3 Zrotation Yrotation Xrotation
				JOINT LeftToeBase
				{
					OFFSET 0.157640 -0.433110 2.322550 
					CHANNELS 3 Zrotation Yrotation Xrotation
					End Site
					{
						OFFSET 0.000000 0.000000 0.000000 
					}
				}
			}
		}
	}
	JOINT RightUpLeg
	{
		OFFSET -1.305520 -1.794630 0.839290 
		CHANNELS 3 Zrotation Yrotation Xrotation
		JOINT RightLeg
		{
			OFFSET -2.542530 -6.985550 0.000000 
			CHANNELS 3 Zrotation Yrotation Xrotation
			JOINT RightFoot
			{
				OFFSET -2.568260 -7.056230 0.000000 
				CHANNELS 3 Zrotation Yrotation Xrotation
				JOINT RightToeBase
				{
					OFFSET -0.164730 -0.452590 2.363150 
					CHANNELS 3 Zrotation Yrotation Xrotation
					End Site
					{
						OFFSET 0.000000 0.000000 0.000000 
					}
				}
			}
		}
	}
	JOINT Spine
	{
		OFFSET 0.028270 2.035590 -0.193380 
		CHANNELS 3 Zrotation Yrotation Xrotation
		JOINT Spine1
		{
			OFFSET 0.056720 2.048850 -0.042750 
			CHANNELS 3 Zrotation Yrotation Xrotation
			JOINT Neck1
			{
				OFFSET -0.054170 1.746240 0.172020 
				CHANNELS 3 Zrotation Yrotation Xrotation
				JOINT Head
				{
					OFFSET 0.104070 1.761360 -0.123970 
					CHANNELS 3 Zrotation Yrotation Xrotation
					End Site
					{
						OFFSET 0.000000 0.000000 0.000000 
					}
				}
			}
			JOINT LeftArm
			{
				OFFSET 3.362410 1.200890 -0.311210 
				CHANNELS 3 Zrotation Yrotation Xrotation
				JOINT LeftForeArm
				{
					OFFSET 4.983000 -0.000000 -0.000000 
					CHANNELS 3 Zrotation Yrotation Xrotation
					JOINT LeftHand
					{
						OFFSET 3.483560 -0.000000 -0.000000 
						CHANNELS 3 Zrotation Yrotation Xrotation
						JOINT LeftHandIndex1
						{
							OFFSET 0.715260 -0.000000 -0.000000 
							CHANNELS 3 Zrotation Yrotation Xrotation
							End Site
							{
								OFFSET 0.000000 0.000000 0.000000 
							}
						}
					}
				}
			}
			JOINT RightArm
			{
				OFFSET -3.136600 1.374050 -0.404650 
				CHANNELS 3 Zrotation Yrotation Xrotation
				JOINT RightForeArm
				{
					OFFSET -5.241900 -0.000000 -0.000000 
					CHANNELS 3 Zrotation Yrotation Xrotation
					JOINT RightHand
					{
						OFFSET -3.444170 -0.000000 -0.000000 
						CHANNELS 3 Zrotation Yrotation Xrotation
						JOINT RightHandIndex1
						{
							OFFSET -0.622530 -0.000000 -0.000000 
							CHANNELS 3 Zrotation Yrotation Xrotation
							End Site
							{
								OFFSET 0.000000 0.000000 0.000000 
							}
						}
					}
				}
			}
		}
	}
}
MOTION
Frames: 9
Frame Time: 0.041667
32.876433 16.915220 -32.933985 -2.357980 -45.416412 18.978934 -14.057758 8.184454 -57.629667 10.495817 18.113434 57.311547 -1.571781 6.748750 8.177339 0.185800 -2.776300 -7.656600 8.198440 7.352186 -52.391082 -11.145022 -19.720967 60.304681 2.452516 -8.352685 0.262620 -0.310300 3.581000 -9.900900 1.202915 -3.831408 -2.521765 -5.426697 -2.559753 -0.793345 1.276807 4.246625 -4.620861 -0.879500 1.740500 -5.925000 -17.590585 -56.830242 1.805033 55.787522 -45.986409 -41.655258 -1.337575 -5.136561 -46.426147 -7.125000 0.000000 0.000000 83.689436 14.822493 44.849664 -111.720473 55.011424 -82.882776 0.521774 0.758492 7.570870 7.125000 0.000000 0.000000 
32.908792 17.026396 -32.886487 -1.627403 -44.365814 15.984611 -13.631132 7.950311 -54.336550 10.065601 17.834529 56.074960 -1.732643 7.188265 8.718974 0.185200 -2.772000 -7.644600 8.184958 5.274923 -49.497689 -10.848034 -19.234861 59.271619 2.257209 -8.006547 0.933836 -0.286800 3.443900 -9.517200 1.246489 -4.691641 -2.558561 -5.712012 -2.917615 -1.795070 1.170998 4.137673 -4.935860 -0.897700 1.692900 -5.973100 -18.152036 -57.055467 1.671546 55.534052 -45.726201 -41.408062 -1.317642 -5.068782 -45.722658 -7.125000 0.000000 0.000000 83.217142 15.044476 44.310267 -111.959843 54.796776 -83.310050 0.638390 0.592544 7.440645 7.125000 0.000000 0.000000 
32.946813 17.038415 -32.868459 -1.489692 -43.762261 15.478966 -13.443304 7.309218 -53.663278 10.002095 17.802568 55.903244 -1.951164 7.598870 8.651602 0.182700 -2.753200 -7.592400 8.191470 4.488506 -49.219612 -10.810220 -19.161315 59.078344 2.234022 -7.963970 1.204299 -0.312100 3.591200 -9.929400 1.227767 -5.396015 -2.569348 -6.469717 -3.098675 -1.895939 1.117504 4.164110 -5.075485 -0.891300 1.702200 -6.074800 -16.581005 -57.100367 0.350392 55.487229 -45.828721 -41.441766 -1.302085 -5.133451 -46.038421 -7.125000 0.000000 0.000000 83.396018 15.405400 44.426681 -112.364147 54.568806 -83.612974 0.787239 0.391276 7.352021 7.125000 0.000000 0.000000 
32.958254 17.025009 -32.879900 -1.556761 -43.860678 15.619986 -13.414799 7.272894 -53.805402 9.972520 17.803086 55.773173 -2.028357 7.746274 8.796112 0.176800 -2.708500 -7.468200 8.189978 4.637137 -49.356447 -10.800183 -19.167706 59.045114 2.290247 -8.065188 1.252757 -0.309900 3.579100 -9.895500 1.258106 -5.152127 -2.561429 -6.013561 -3.064481 -1.943417 1.041763 4.139375 -5.113938 -0.969700 1.680300 -6.087100 -16.325032 -57.217983 -0.322302 55.298934 -45.766933 -41.365100 -1.316462 -5.155278 -45.984252 -7.125000 0.000000 0.000000 82.839576 15.587299 44.109380 -112.560175 54.512874 -83.960286 0.888767 0.260332 7.096902 7.125000 0.000000 0.000000 
32.966113 17.000046 -32.910178 -1.549842 -43.894580 16.046364 -13.500276 7.158608 -54.389628 10.011251 17.847796 55.874472 -2.073971 7.809343 8.831524 0.178800 -2.723400 -7.509600 8.134806 4.975829 -49.918034 -10.856271 -19.255846 59.214291 2.367670 -8.204879 1.117744 -0.300900 3.526900 -9.749200 1.258698 -5.034293 -2.554872 -5.882841 -3.028401 -1.862368 1.061258 4.117947 -5.113781 -0.974300 1.665800 -6.119300 -15.794969 -57.380698 -0.986894 55.087985 -45.736303 -41.194459 -1.329601 -5.155364 -46.002949 -7.125000 0.000000 0.000000 82.803924 15.745071 44.032531 -112.871172 54.412693 -84.288779 1.014872 0.098420 7.007472 7.125000 0.000000 0.000000 
32.981599 16.997388 -32.918499 -1.498461 -43.744039 15.953169 -13.452206 6.933123 -54.324389 10.025060 17.867620 55.923765 -2.136353 7.917254 8.750296 0.177200 -2.711800 -7.477300 8.113965 4.878106 -49.936365 -10.877538 -19.259886 59.263823 2.370429 -8.211900 1.074240 -0.299100 3.516500 -9.720300 1.267256 -5.112976 -2.553363 -5.865470 -3.063100 -1.930693 1.029347 4.093512 -5.174340 -0.998400 1.649500 -6.159900 -15.243835 -57.519971 -1.737835 54.904475 -45.698319 -41.073414 -1.334155 -5.166878 -45.982744 -7.125000 0.000000 0.000000 82.620978 15.941637 43.893267 -113.154503 54.286280 -84.637498 1.125135 -0.046260 6.852468 7.125000 0.000000 0.000000 
32.994889 16.989414 -32.929709 -1.481619 -43.681686 16.025429 -13.435062 6.752247 -54.436219 10.045643 17.892774 55.982412 -2.200332 8.025471 8.686039 0.175700 -2.700000 -7.444700 8.084109 4.918665 -50.098069 -10.905027 -19.286909 59.338596 2.390623 -8.249616 1.015748 -0.298200 3.511200 -9.705500 1.271797 -5.126608 -2.548957 -5.828400 -3.071498 -1.941341 1.003840 4.071254 -5.216820 -1.021900 1.633900 -6.198800 -14.661392 -57.659734 -2.501037 54.715299 -45.664896 -40.945299 -1.339847 -5.180369 -45.984552 -7.125000 0.000000 0.000000 82.460281 16.129179 43.779841 -113.433028 54.167717 -84.976591 1.225576 -0.173062 6.698923 7.125000 0.000000 0.000000 
33.006215 16.982018 -32.941150 -1.472192 -43.655693 16.119192 -13.425155 6.610646 -54.562775 10.057913 17.911959 56.010486 -2.264240 8.136166 8.648882 0.174200 -2.688800 -7.413500 8.047800 4.996625 -50.254927 -10.922185 -19.312156 59.383662 2.417364 -8.299622 0.976181 -0.296300 3.500200 -9.674600 1.275450 -5.110709 -2.543160 -5.773600 -3.070067 -1.942792 0.980429 4.045570 -5.253617 -1.045200 1.617000 -6.234700 -14.131251 -57.808244 -3.231096 54.513635 -45.622752 -40.800943 -1.344796 -5.190920 -45.963567 -7.125000 0.000000 0.000000 82.298888 16.305706 43.664984 -113.698379 54.056990 -85.305016 1.313215 -0.276330 6.549683 7.125000 0.000000 0.000000 
33.017194 16.976586 -32.951089 -1.460464 -43.631833 16.203707 -13.414405 6.472673 -54.669996 10.068758 17.928915 56.034843 -2.328893 8.249061 8.601194 0.172900 -2.678500 -7.384900 8.007130 5.069053 -50.391429 -10.935389 -19.334988 59.416782 2.440758 -8.343793 0.943060 -0.294900 3.491800 -9.651100 1.276405 -5.110047 -2.537073 -5.754149 -3.069414 -1.938058 0.958649 4.019858 -5.289720 -1.066000 1.600200 -6.271300 -13.592682 -57.958699 -3.956132 54.308698 -45.579227 -40.647950 -1.347404 -5.201322 -45.939508 -7.125000 0.000000 0.000000 82.166867 16.481194 43.566196 -113.955622 53.948560 -85.616184 1.388653 -0.356772 6.412348 7.125000 0.000000 0.000000 
